<svg xmlns="http://www.w3.org/2000/svg" width="24" height="24" id="logo"><path d="M19.7 23.5H4.3c-2.1 0-3.8-1.7-3.8-3.8V4.3C.5 2.2 2.2.5 4.3.5h15.3c2.1 0 3.8 1.7 3.8 3.8v15.3c.1 2.2-1.6 3.9-3.7 3.9zM4.3 1.5c-1.6 0-2.8 1.3-2.8 2.8v15.3c0 1.6 1.3 2.8 2.8 2.8h15.3c1.6 0 2.8-1.3 2.8-2.8V4.3c0-1.6-1.3-2.8-2.8-2.8H4.3z"></path><path d="M11.1 19.1c-2.3 0-4.2-1.9-4.2-4.2 0-2.3 1.9-4.2 4.2-4.2s4.2 1.9 4.2 4.2c-.1 2.3-1.9 4.2-4.2 4.2zm0-7.3c-1.7 0-3.2 1.4-3.2 3.2 0 1.7 1.4 3.2 3.2 3.2s3.2-1.4 3.2-3.2c-.1-1.8-1.5-3.2-3.2-3.2z"></path><path d="M14.7 15.9c-.1 0-.3-.1-.4-.1-.1-.1-.2-.3-.1-.4V15c0-1.7-1.4-3.2-3.2-3.2h-.4c-.2 0-.3 0-.4-.1-.1-.1-.2-.3-.1-.4.3-2.1 2-3.6 4.1-3.6 2.3 0 4.2 1.9 4.2 4.2 0 1.9-1.6 3.7-3.7 4zm-3.5-5.1c2.2.1 3.9 1.8 4 4 1.3-.4 2.2-1.6 2.2-3 0-1.7-1.4-3.2-3.2-3.2-1.3 0-2.5.9-3 2.2zM9.3 14.7c-.3 0-.6-.3-.6-.6s.3-.6.6-.6.6.3.6.6-.3.6-.6.6zm0-1c-.2 0-.4.2-.4.4s.2.4.4.4.4-.2.4-.4-.2-.4-.4-.4zM8.3 13.1c-.1 0-.2 0-.3-.1-.2-.2-.3-.5-.1-.7C9 10.5 8.5 8.1 6.8 7c-.3-.2-.3-.5-.2-.7.2-.2.5-.3.7-.2 2.2 1.5 2.9 4.5 1.4 6.7-.1.2-.3.3-.4.3z"></path><path d="M11.9 9.4c-.2 0-.4-.1-.5-.3-.9-1.9-3.2-2.8-5.1-1.9-.2.2-.5 0-.7-.2-.1-.3 0-.5.2-.7 2.4-1.1 5.3 0 6.4 2.4.1.3 0 .5-.2.7h-.1z"></path><path d="M7 6.9c-.3 0-.5-.2-.5-.5v-1c0-.3.2-.5.5-.5s.5.2.5.5v1c0 .3-.2.5-.5.5z"></path></svg>